HIERARCHY
ROOT Hips
{
	OFFSET 0.00000 0.00000 0.00000
	CHANNELS 6 Xposition Yposition Zposition Zrotation Yrotation Xrotation 
	JOINT LHipJoint
	{
		OFFSET 0 0 0
		CHANNELS 3 Zrotation Yrotation Xrotation
		JOINT LeftUpLeg
		{
			OFFSET 1.36337 -1.57426 1.11036
			CHANNELS 3 Zrotation Yrotation Xrotation
			JOINT LeftLeg
			{
				OFFSET 2.38468 -6.55187 0.00000
				CHANNELS 3 Zrotation Yrotation Xrotation
				JOINT LeftFoot
				{
					OFFSET 2.37166 -6.51609 0.00000
					CHANNELS 3 Zrotation Yrotation Xrotation
					JOINT LeftToeBase
					{
						OFFSET 0.29078 -0.79891 2.01393
						CHANNELS 3 Zrotation Yrotation Xrotation
						End Site
						{
							OFFSET 0.00000 -0.00000 1.07924
						}
					}
				}
			}
		}
	}
	JOINT RHipJoint
	{
		OFFSET 0 0 0
		CHANNELS 3 Zrotation Yrotation Xrotation
		JOINT RightUpLeg
		{
			OFFSET -1.36349 -1.57426 1.11036
			CHANNELS 3 Zrotation Yrotation Xrotation
			JOINT RightLeg
			{
				OFFSET -2.29562 -6.30717 0.00000
				CHANNELS 3 Zrotation Yrotation Xrotation
				JOINT RightFoot
				{
					OFFSET -2.40985 -6.62100 0.00000
					CHANNELS 3 Zrotation Yrotation Xrotation
					JOINT RightToeBase
					{
						OFFSET -0.23197 -0.63733 1.92232
						CHANNELS 3 Zrotation Yrotation Xrotation
						End Site
						{
							OFFSET -0.00000 -0.00000 1.01562
						}
					}
				}
			}
		}
	}
	JOINT LowerBack
	{
		OFFSET 0 0 0
		CHANNELS 3 Zrotation Yrotation Xrotation
		JOINT Spine
		{
			OFFSET -0.08565 2.03602 -0.24562
			CHANNELS 3 Zrotation Yrotation Xrotation
			JOINT Spine1
			{
				OFFSET -0.00036 2.05693 0.00216
				CHANNELS 3 Zrotation Yrotation Xrotation
				JOINT Neck
				{
					OFFSET 0 0 0
					CHANNELS 3 Zrotation Yrotation Xrotation
					JOINT Neck1
					{
						OFFSET -0.03664 1.69515 0.31789
						CHANNELS 3 Zrotation Yrotation Xrotation
						JOINT Head
						{
							OFFSET 0.00932 1.70181 -0.46013
							CHANNELS 3 Zrotation Yrotation Xrotation
							End Site
							{
								OFFSET 0.01243 1.77620 -0.19377
							}
						}
					}
				}
				JOINT LeftShoulder
				{
					OFFSET 0 0 0
					CHANNELS 3 Zrotation Yrotation Xrotation
					JOINT LeftArm
					{
						OFFSET 3.74344 0.81315 -0.36647
						CHANNELS 3 Zrotation Yrotation Xrotation
						JOINT LeftForeArm
						{
							OFFSET 4.97185 -0.00000 -0.00000
							CHANNELS 3 Zrotation Yrotation Xrotation
							JOINT LeftHand
							{
								OFFSET 3.35811 -0.00000 0.00000
								CHANNELS 3 Zrotation Yrotation Xrotation
								JOINT LeftFingerBase
								{
									OFFSET 0 0 0
									CHANNELS 3 Zrotation Yrotation Xrotation
									JOINT LeftHandIndex1
									{
										OFFSET 0.62278 -0.00000 0.00000
										CHANNELS 3 Zrotation Yrotation Xrotation
										End Site
										{
											OFFSET 0.50210 -0.00000 0.00000
										}
									}
								}
								JOINT LThumb
								{
									OFFSET 0 0 0
									CHANNELS 3 Zrotation Yrotation Xrotation
									End Site
									{
										OFFSET 0.50976 -0.00000 0.50976
									}
								}
							}
						}
					}
				}
				JOINT RightShoulder
				{
					OFFSET 0 0 0
					CHANNELS 3 Zrotation Yrotation Xrotation
					JOINT RightArm
					{
						OFFSET -3.75385 0.50666 -0.06525
						CHANNELS 3 Zrotation Yrotation Xrotation
						JOINT RightForeArm
						{
							OFFSET -4.96493 -0.00000 -0.00000
							CHANNELS 3 Zrotation Yrotation Xrotation
							JOINT RightHand
							{
								OFFSET -3.34929 -0.00000 0.00000
								CHANNELS 3 Zrotation Yrotation Xrotation
								JOINT RightFingerBase
								{
									OFFSET 0 0 0
									CHANNELS 3 Zrotation Yrotation Xrotation
									JOINT RightHandIndex1
									{
										OFFSET -0.63804 -0.00000 0.00000
										CHANNELS 3 Zrotation Yrotation Xrotation
										End Site
										{
											OFFSET -0.51441 -0.00000 0.00000
										}
									}
								}
								JOINT RThumb
								{
									OFFSET 0 0 0
									CHANNELS 3 Zrotation Yrotation Xrotation
									End Site
									{
										OFFSET -0.52226 -0.00000 0.52226
									}
								}
							}
						}
					}
				}
			}
		}
	}
}
MOTION
Frames: 15
Frame Time: 0.133333
0.00 0.00 0.00 0 0 0 0 0 0 -21 0 0 0 0 0 0 0 0 0 0 0 0 0 0 21 0 0 0 0 0 0 0 0 0 0 0 0 0 0 0 0 0 0 0 0 0 0 -16 0 0 21 0 0 11 0 0 0 -8 0 0 0 0 0 0 0 0 0 0 0 0 0 0 0 0 0 0 0 0 8 0 0 0 0 0 0 0 0 0 0 0 0 0 0 0 0 0
0.00 0.00 0.00 175.9670 1.0719 -170.0370 0.0000 0.0000 0.0000 -12.2228 -4.2175 -54.6717 13.2054 18.8551 69.7623 1.2437 3.1530 -22.4152 1.2780 -7.1643 -20.2031 0.0000 0.0000 0.0000 -4.5427 -9.1561 -49.2424 -11.3211 -18.0887 63.8199 -0.9813 -4.2231 -20.6913 -0.4932 4.5025 -12.4950 -3.7402 -1.1585 41.0936 -2.5944 -0.9410 5.9707 -0.6956 0.7425 -13.0818 -0.0425 2.4360 -26.4472 -6.7996 3.8163 7.7839 -1.7798 0.9716 6.7194 -0.0000 -0.0000 0.0000 -62.9606 -33.8233 55.9704 61.4315 -56.6795 -35.5347 -0.0000 0.0000 -24.4987 32.2223 -14.1671 -8.7694 -7.1250 0.0000 -0.0000 3.2033 13.3846 -2.3786 -0.0000 -0.0000 0.0000 82.2613 22.2897 32.4478 -66.4007 57.7873 -39.7142 0.0000 -0.0000 -12.5842 -20.8026 -29.4341 10.5753 7.1250 -0.0000 -0.0000 11.9703 -60.6980 -4.6187
0.00 0.00 0.00 177.0070 2.0943 -170.0050 0.0000 0.0000 0.0000 -13.6049 -3.1957 -51.1537 11.9560 18.3720 65.8494 1.2930 3.7511 -23.1248 1.2259 -7.0223 -19.7814 0.0000 0.0000 0.0000 -4.1576 -6.7795 -43.7646 -9.1470 -16.9014 56.5972 -0.6802 -7.1644 -19.7986 -0.5794 4.8742 -13.5502 -3.7891 -0.6810 39.1174 -2.2316 -0.5202 5.6714 -0.4163 0.8081 -12.7615 0.8017 2.9200 -25.0512 -6.7834 4.9925 8.0122 -1.7154 1.9479 6.6446 0.0000 0.0000 0.0000 -62.8215 -25.1129 79.1437 47.0863 -51.7506 -23.8662 -0.0000 -0.0000 0.8670 8.6929 -11.7399 -1.7819 -7.1250 0.0000 -0.0000 -12.8800 18.2722 8.4074 0.0000 0.0000 0.0000 77.6381 15.5128 46.4847 -41.7773 49.0884 -19.7721 0.0000 -0.0000 -2.2215 -4.6135 -34.5568 2.6207 7.1250 -0.0000 -0.0000 33.5298 -61.4150 -14.2893
0.00 0.00 0.00 174.9960 22.9635 -175.8460 0.0000 0.0000 0.0000 -22.3822 -6.6077 -52.9643 6.5856 14.9728 47.2891 0.1525 0.5770 -7.6096 1.0088 -6.3909 -17.9229 0.0000 0.0000 0.0000 18.7311 -17.3418 -35.4107 -10.0883 -17.4592 59.7829 -3.4876 1.1648 -35.1363 -0.0061 -0.5057 1.3895 -2.1255 0.6917 40.3202 -3.3084 2.4481 8.8718 -3.6477 2.3447 -9.4747 -1.1632 2.6406 -28.3908 -8.4290 6.6683 19.2595 -1.7280 1.9146 11.2311 0.0000 -0.0000 0.0000 -78.3652 0.2406 36.9683 24.7933 -35.9920 -8.1681 -0.0000 0.0000 -15.4701 13.4769 -13.9470 -3.3058 -7.1250 0.0000 -0.0000 -9.5315 15.7843 6.6735 0.0000 -0.0000 0.0000 61.9262 19.2551 22.8293 -29.4901 40.4523 -11.0773 0.0000 -0.0000 -16.6103 -15.3979 -30.8773 8.0449 7.1250 -0.0000 -0.0000 18.9120 -60.7881 -7.4302
0.00 0.00 0.00 177.2570 23.7718 -168.4520 0.0000 0.0000 0.0000 -13.6666 -16.1230 -57.3525 9.2465 16.9638 56.9388 0.2380 -2.4071 -8.6958 0.0639 -1.6313 -4.4878 0.0000 0.0000 0.0000 18.1939 -22.6987 -44.8806 -16.1254 -19.6362 78.6051 -0.5186 12.0608 -14.3507 -0.0709 -1.7180 4.7269 -4.4594 1.3699 34.8906 -4.5822 1.7858 7.5923 -3.3162 1.7914 -9.1591 -4.5013 -0.2079 -31.1868 -0.1931 1.8347 20.0008 0.9888 0.4384 11.5894 0.0000 -0.0000 0.0000 -70.3041 -8.4820 46.6362 31.5354 -42.1736 -12.4278 -0.0000 0.0000 -19.2819 19.0365 -11.5043 -3.9366 -7.1250 0.0000 -0.0000 -5.6779 17.8649 3.6805 0.0000 -0.0000 0.0000 68.1959 18.4445 35.8732 -44.9929 50.7650 -22.2333 0.0000 -0.0000 -16.9857 -11.1862 -25.7429 4.9092 7.1250 -0.0000 -0.0000 19.7884 -55.0415 -5.0248
0.00 0.00 0.00 170.9550 23.7834 -169.1560 0.0000 0.0000 0.0000 -2.7116 -16.4703 -53.2009 8.4336 16.4291 54.1099 0.4675 -0.6918 -12.6943 0.7067 -5.3729 -14.9753 0.0000 0.0000 0.0000 -2.4313 -17.4751 -52.4301 -12.6130 -18.6379 67.9191 -2.0466 2.0084 -26.5221 -0.8020 5.7156 -15.9614 -3.1380 -3.1663 39.8605 -3.0445 -3.6548 6.6436 -0.2529 -0.6974 -11.9361 -2.5976 0.9480 -30.6653 -4.7831 4.2091 23.0948 -0.6113 0.9620 12.8621 -0.0000 0.0000 0.0000 -61.2490 -30.5642 37.8704 43.6916 -50.1111 -21.2300 -0.0000 0.0000 -21.7427 27.0461 -17.3868 -8.6742 -7.1250 0.0000 -0.0000 -0.5890 10.6100 0.4705 -0.0000 0.0000 0.0000 74.0977 12.8701 21.9644 -32.8673 43.2278 -13.3311 0.0000 -0.0000 -12.7722 -4.5000 -29.2040 2.1991 7.1250 -0.0000 -0.0000 28.7307 -56.8482 -8.8424
0.00 0.00 0.00 178.8770 32.2759 -171.6970 0.0000 0.0000 0.0000 -13.4889 -4.5197 -53.7537 11.6144 18.2229 64.7614 1.0511 -4.1287 -18.4390 0.0653 -1.6492 -4.5371 0.0000 0.0000 0.0000 -8.3527 -12.1997 -33.6963 -8.5881 -16.5352 54.6545 -0.9238 -2.9745 -19.4623 -0.5461 4.7343 -13.1523 -8.1475 2.6276 44.8877 -4.2143 1.4984 7.4722 -1.3836 1.9827 -12.3651 -0.6251 4.8170 -30.1915 -6.6628 8.2022 9.9607 -0.9320 3.2464 8.1380 -0.0000 0.0000 0.0000 -58.2967 -36.8338 32.9906 40.8777 -48.5814 -19.0949 -0.0000 0.0000 -21.8974 25.8565 -16.1456 -7.6754 -7.1250 0.0000 -0.0000 -1.2565 12.1497 0.9641 -0.0000 0.0000 0.0000 73.8229 14.6887 24.0610 -33.8415 43.9670 -14.0029 0.0000 -0.0000 -13.9916 -15.8763 -27.1400 7.3922 7.1250 -0.0000 -0.0000 15.8583 -57.3238 -4.8692
0.00 0.00 0.00 175.2380 35.7658 -174.6420 0.0000 0.0000 0.0000 -17.6152 -9.8983 -52.3555 10.2088 17.5256 60.1839 0.6276 -3.9544 -14.1450 0.2922 -3.4759 -9.6066 0.0000 0.0000 0.0000 7.9177 -24.3447 -37.4796 -18.1323 -19.9162 84.5320 0.6340 14.5617 0.8797 -0.0035 0.3816 -1.0485 -8.8005 3.6460 40.9734 -4.1463 2.7742 7.9089 -1.3291 2.4548 -10.7253 -2.8253 1.7986 -31.2689 -3.4626 4.6883 18.0593 0.0094 1.4687 10.9475 0.0000 -0.0000 0.0000 -79.9322 -7.0286 41.3434 33.5120 -43.7199 -13.7747 -0.0000 0.0000 -24.9157 29.3127 -17.8445 -9.7623 -7.1250 0.0000 -0.0000 0.8394 9.7177 -0.6857 0.0000 -0.0000 0.0000 91.4209 19.7568 21.2911 -76.0298 59.2496 -47.9319 0.0000 -0.0000 -15.0181 -13.5790 -21.1427 4.9791 7.1250 -0.0000 -0.0000 15.1455 -51.0499 -2.3024
0.00 0.00 0.00 176.2350 24.8148 -171.7070 0.0000 0.0000 0.0000 -6.9480 -7.6416 -43.2785 6.9680 15.3049 48.7534 0.4659 -0.9932 -12.5862 1.3089 -7.2472 -20.4500 0.0000 0.0000 0.0000 -8.4624 -11.9759 -29.3261 -3.8475 -11.9547 35.5720 0.0657 -9.8582 -12.8893 -1.3206 7.2782 -20.5423 -8.1629 1.1102 44.6293 -2.4687 -0.0856 7.4462 1.2812 1.2814 -12.2721 -4.2218 -0.0239 -31.3644 -2.5920 2.5905 17.3710 0.1785 0.5634 10.6624 -0.0000 0.0000 0.0000 -50.9890 -37.9900 34.1933 49.4099 -52.7547 -25.7036 -0.0000 0.0000 -19.7396 27.4193 -14.1682 -7.2367 -7.1250 0.0000 -0.0000 -0.0326 14.1042 0.0236 -0.0000 0.0000 0.0000 75.5936 17.5380 41.5962 -45.0244 50.7805 -22.2577 0.0000 -0.0000 -15.0349 -12.2257 -25.3377 5.2977 7.1250 -0.0000 -0.0000 18.5234 -54.8575 -4.6021
0.00 0.00 0.00 172.6980 14.7609 -172.5970 0.0000 0.0000 0.0000 -13.6713 -10.1891 -46.3900 4.0610 12.2411 36.5904 0.1202 -4.6229 9.8486 0.7446 -5.5121 -15.3751 0.0000 0.0000 0.0000 5.9393 -2.8337 -33.5627 -7.9216 -16.0613 52.2799 -1.6620 7.8906 -23.0904 -0.0601 1.5812 -4.3496 -4.5444 -1.1673 45.3784 -4.4768 -1.1202 7.4669 -2.3366 0.9371 -12.6512 -1.1378 4.0912 -28.2711 -7.8189 7.9034 14.3894 -1.2922 2.7598 9.4394 -0.0000 -0.0000 0.0000 -63.3356 -14.4978 39.3801 49.4260 -52.7614 -25.7165 -0.0000 0.0000 -30.1518 30.4577 -16.2646 -9.3525 -7.1250 0.0000 -0.0000 1.7779 11.2879 -1.3962 -0.0000 -0.0000 0.0000 72.9384 19.2353 40.0782 -47.7875 52.0632 -24.4180 0.0000 -0.0000 -14.0688 -16.2746 -26.2634 7.3608 7.1250 -0.0000 -0.0000 14.9422 -56.5544 -4.2994
0.00 0.00 0.00 173.3580 -15.9247 -170.6280 0.0000 0.0000 0.0000 -27.2190 3.3150 -24.8766 7.6713 15.8721 51.3698 3.5732 -1.2449 -35.5550 0.0878 -1.9116 -5.2615 0.0000 0.0000 0.0000 7.2170 2.6103 -54.0875 -4.9831 -13.3648 40.7498 -0.0795 -1.2867 -5.9630 -1.0647 6.5601 -18.4185 -5.7424 2.2339 40.2400 0.0642 -2.0647 7.4410 4.1309 -1.8002 -11.0182 -9.4516 -6.1611 -27.8143 7.7352 -6.4235 13.3507 3.2027 -2.6518 9.2441 0.0000 -0.0000 0.0000 -65.5443 -4.8582 60.8912 38.7029 -47.2824 -17.4802 -0.0000 0.0000 -23.2662 23.9526 -10.0433 -4.4300 -7.1250 0.0000 -0.0000 -2.1680 19.0163 1.3442 0.0000 -0.0000 0.0000 71.3276 11.8415 32.9723 -59.4758 56.1686 -33.9053 0.0000 -0.0000 -9.9850 -14.5047 -22.7461 5.7122 7.1250 -0.0000 -0.0000 14.9510 -52.7753 -2.9128
0.00 0.00 0.00 167.6260 -23.7375 -162.2200 0.0000 0.0000 0.0000 -21.5125 6.9156 -30.5997 14.9800 19.3848 75.1764 -0.0042 -10.2388 -7.1107 1.2459 -7.0772 -19.9441 0.0000 0.0000 0.0000 3.1890 5.4171 -57.2118 -10.4581 -17.6595 61.0087 -0.8388 0.5232 -17.1409 -0.0302 -1.1212 3.0825 3.2322 -3.2829 34.1981 -1.2794 -4.6768 6.1652 -1.1312 -2.8335 -10.8406 11.4833 17.5530 -19.7220 -23.9064 26.1859 13.2200 -5.3261 10.1711 12.7369 0.0000 0.0000 0.0000 -71.4515 -20.8467 56.9252 49.7739 -52.9039 -25.9937 -0.0000 0.0000 -24.2802 24.8462 -16.6633 -7.5633 -7.1250 0.0000 -0.0000 -1.9722 11.7330 1.5309 0.0000 0.0000 0.0000 74.7067 4.9833 33.2177 -44.5289 50.5356 -21.8744 0.0000 -0.0000 -15.6402 -15.9532 -25.8070 7.0938 7.1250 -0.0000 -0.0000 15.0220 -56.0428 -4.1355
0.00 0.00 0.00 165.4800 -26.8427 -163.5280 0.0000 0.0000 0.0000 -6.4156 0.7124 -37.1334 3.5371 11.5175 34.0458 -0.4873 13.3805 -10.6919 1.6739 -8.1509 -23.1734 0.0000 0.0000 0.0000 3.2760 1.4224 -46.8345 -11.3930 -18.1221 64.0515 -2.1743 2.4624 -27.2536 -0.0317 -1.1494 3.1600 2.0032 -1.9937 41.5048 -1.5468 -3.8059 6.5049 -0.8296 -2.5266 -12.8323 -6.0562 -0.1665 -28.5735 -4.6126 2.7940 13.4968 -0.2476 0.2941 8.8426 -0.0000 -0.0000 0.0000 -71.5215 -9.4064 35.2205 38.6231 -47.2327 -17.4216 -0.0000 0.0000 -20.4544 31.7608 -18.5138 -11.1213 -7.1250 0.0000 -0.0000 2.3316 8.4978 -1.9631 -0.0000 -0.0000 0.0000 69.1351 11.8754 33.1674 -44.9801 50.7587 -22.2233 0.0000 -0.0000 -20.5144 -19.6649 -28.6622 9.7263 7.1250 -0.0000 -0.0000 12.7445 -59.6605 -4.6071
0.00 0.00 0.00 174.4650 -22.2383 -165.3310 0.0000 0.0000 0.0000 -8.4970 1.7066 -46.9115 7.4230 15.6780 50.4566 0.3948 5.0837 -14.8308 0.4126 -4.1232 -11.4235 0.0000 0.0000 0.0000 -6.8374 -0.2234 -31.0864 -5.8818 -14.3128 44.5055 -1.0921 -1.7576 -20.4491 -1.0432 6.4955 -18.2292 -0.6898 1.3212 39.0024 -1.2798 -0.7738 6.8775 -0.5302 -1.1193 -11.4250 -5.2967 1.6281 -27.5292 -2.3017 4.3525 11.3497 0.6520 1.4731 7.8572 -0.0000 -0.0000 0.0000 -71.7363 -9.3167 30.7393 37.3643 -46.4285 -16.5035 -0.0000 0.0000 -20.8963 28.2653 -19.6601 -10.2535 -7.1250 0.0000 -0.0000 -0.0558 7.9006 0.0476 -0.0000 -0.0000 0.0000 69.4694 14.0511 33.0581 -46.7295 51.5882 -23.5863 0.0000 -0.0000 -16.2465 -15.9735 -25.8536 7.1151 7.1250 -0.0000 -0.0000 15.0267 -56.0925 -4.1550
0.00 0.00 0.00 174.2120 -22.8199 -157.7200 0.0000 0.0000 0.0000 -7.9931 -6.7839 -54.2183 12.2614 18.4990 66.8151 2.1650 -2.4121 -27.2047 0.7325 -5.4679 -15.2482 0.0000 0.0000 0.0000 -19.1574 -2.2557 -43.7902 -5.7464 -14.1780 43.9551 0.5064 -12.5099 -5.3725 -1.2244 7.0182 -19.7694 2.4909 -1.2058 26.7392 -0.1100 -2.0700 6.7720 -0.8275 -1.4902 -7.3304 -16.1649 -11.2660 -25.7123 11.4707 -11.7821 8.6660 4.6337 -5.2033 8.4175 0.0000 0.0000 0.0000 -70.2269 -10.3926 46.6963 63.3922 -57.1481 -37.1776 -0.0000 0.0000 -24.1078 27.8986 -14.7628 -7.6835 -7.1250 0.0000 -0.0000 0.2364 13.3768 -0.1753 0.0000 0.0000 0.0000 69.0331 9.7378 26.9769 -55.5884 55.0149 -30.6975 0.0000 -0.0000 -12.0153 -12.8748 -23.7574 5.2611 7.1250 -0.0000 -0.0000 17.0383 -53.4662 -3.6301
